<svg width="182" height="60" viewBox="0 0 182 60" fill="none" xmlns="http://www.w3.org/2000/svg">
<g clip-path="url(#clip0_2_249)">
<path d="M22.7921 0.00683594H24.4017C29.99 0.130207 35.4871 2.41258 39.4353 6.45299C37.9775 7.96429 36.4893 9.41391 35.0619 10.9252C32.8448 8.88958 30.1722 7.31659 27.2566 6.76142C22.9439 5.83614 18.2972 6.66889 14.6831 9.16716C10.7349 11.7888 8.06224 16.2302 7.4852 20.98C6.84741 25.6681 8.15335 30.603 11.1601 34.2424C14.0453 37.7893 18.4491 40.01 23.0047 40.1642C27.2566 40.411 31.6907 39.0847 34.7886 36.0621C37.2182 33.934 38.342 30.6955 38.7064 27.5495C33.6648 27.5495 28.6233 27.5804 23.5817 27.5495V21.1959H44.8109C45.9043 28.0121 44.325 35.692 39.2227 40.5652C35.8212 44.0196 31.1137 46.0552 26.3151 46.4562C21.6684 46.9188 16.8698 46.0244 12.7393 43.742C7.7889 41.0587 3.8407 36.5248 1.89697 31.189C0.0747157 26.285 0.0443449 20.7332 1.74511 15.7984C3.29402 11.2953 6.27036 7.31659 10.0971 4.54074C13.772 1.79572 18.2365 0.284422 22.7921 0.00683594Z" fill="#120D26"/>
<path d="M144.579 1.60913H151.078V45.6528C148.922 45.6528 146.735 45.6836 144.579 45.6219C144.609 30.9715 144.579 16.2903 144.579 1.60913Z" fill="#120D26"/>
<path d="M59.2678 16.8764C63.2768 16.1053 67.6198 16.9689 70.9302 19.4055C73.937 21.5645 76.0325 24.9572 76.6703 28.6583C77.4904 32.9455 76.4577 37.6336 73.7244 41.0263C70.7784 44.82 65.9494 46.8556 61.2419 46.5472C56.9293 46.3005 52.7381 44.1106 50.187 40.5328C47.3017 36.585 46.6032 31.1566 48.1825 26.5302C49.7618 21.5645 54.2263 17.7708 59.2678 16.8764ZM60.179 22.7365C58.5389 23.1683 57.0204 24.1245 55.927 25.4815C52.9811 29.0593 53.1633 34.8886 56.413 38.2196C58.2656 40.1319 61.0597 41.0263 63.6412 40.502C66.0405 40.0702 68.1361 38.4355 69.2902 36.2765C71.2947 32.6062 70.7177 27.548 67.6502 24.6796C65.6761 22.8291 62.7909 22.058 60.179 22.7365Z" fill="#120D26"/>
<path d="M91.4609 16.8765C96.0469 15.982 101.058 17.2774 104.49 20.5468C110.078 25.6358 110.686 35.1663 105.917 41.0264C103.032 44.7276 98.3551 46.7632 93.7387 46.5473C89.335 46.4239 84.9919 44.2032 82.3801 40.5329C79.4341 36.4925 78.7963 30.9408 80.4667 26.2218C82.1371 21.4104 86.5105 17.7401 91.4609 16.8765ZM92.372 22.7366C90.732 23.1684 89.2135 24.1245 88.1201 25.4508C85.2045 28.9669 85.326 34.7036 88.4542 38.0655C90.3068 40.0703 93.1921 41.0573 95.8647 40.5021C98.2336 40.0395 100.36 38.4356 101.514 36.2766C103.488 32.5755 102.911 27.5173 99.8129 24.6489C97.8388 22.7983 94.9536 22.0581 92.372 22.7366Z" fill="#120D26"/>
<path d="M118.764 18.6653C122.257 16.4446 126.903 15.8278 130.669 17.74C131.854 18.2644 132.826 19.1588 133.767 20.0533C133.798 19.2205 133.767 18.3569 133.798 17.4933C135.832 17.5241 137.867 17.4933 139.933 17.5241V44.7276C139.902 48.8297 138.87 53.1785 135.954 56.1703C132.765 59.4705 127.875 60.4883 123.472 59.8097C118.764 59.1003 114.664 55.6151 112.842 51.2046C114.664 50.3101 116.577 49.6007 118.46 48.768C119.523 51.2971 121.68 53.4561 124.383 53.9496C127.086 54.4431 130.214 53.7645 131.975 51.4821C133.858 49.1381 133.858 45.9304 133.767 43.062C132.37 44.45 130.761 45.6837 128.817 46.1463C124.595 47.3492 119.949 45.8687 116.699 42.9695C113.419 40.0703 111.475 35.5981 111.657 31.1567C111.748 26.1293 114.543 21.287 118.764 18.6653ZM125.051 22.6132C123.198 22.9216 121.467 23.9703 120.283 25.4199C117.428 28.8743 117.428 34.3952 120.313 37.7879C121.953 39.7927 124.595 40.903 127.146 40.6255C129.546 40.3787 131.763 38.8366 132.947 36.7084C134.952 33.0998 134.618 28.1958 131.915 25.0498C130.244 23.1067 127.572 22.1506 125.051 22.6132Z" fill="#120D26"/>
<path d="M158.884 20.2383C162.528 16.7839 168.147 15.6118 172.824 17.4316C177.258 19.1279 180.083 23.4151 181.51 27.8256C174.919 30.6015 168.359 33.3465 161.769 36.1224C162.68 37.8804 164.077 39.4843 165.96 40.132C168.602 41.0881 171.761 40.7488 173.978 38.9599C174.859 38.2814 175.557 37.3869 176.225 36.5233C177.896 37.6645 179.566 38.7749 181.237 39.9161C178.868 43.5247 174.889 46.0538 170.607 46.4548C165.869 47.0408 160.827 45.1902 157.76 41.4274C152.718 35.5055 153.204 25.5741 158.884 20.2383ZM162.133 25.9442C161.101 27.4555 160.676 29.3061 160.706 31.1258C165.11 29.2753 169.513 27.4247 173.917 25.5433C173.188 23.8161 171.427 22.7674 169.635 22.4898C166.75 21.9655 163.743 23.5385 162.133 25.9442Z" fill="#120D26"/>
</g>
<defs>
<clipPath id="clip0_2_249">
<rect width="181.01" height="60" fill="white" transform="translate(0.5)"/>
</clipPath>
</defs>
</svg>
