<svg width="245" height="58" viewBox="0 0 245 58" fill="none" xmlns="http://www.w3.org/2000/svg">
<path d="M92.1606 20.4404H86.8311V46.0239H92.1606V35.6522H103.851V46.0239H109.009V20.4404H103.851V30.8121H92.1606V20.4404ZM133.078 35.1336C133.078 39.2823 131.015 41.5295 127.232 41.5295C123.45 41.5295 121.387 39.2823 121.387 34.9608V20.4404H116.23V35.1336C116.23 42.3938 120.184 46.5425 127.232 46.5425C134.281 46.5425 138.235 42.3938 138.235 34.9608V20.4404H133.078V35.1336ZM182.935 20.4404L177.09 38.0723L171.416 20.4404H165.915L174.855 46.0239H179.153L184.998 29.2564L190.671 46.0239H195.141L203.909 20.4404H198.58L192.906 38.0723L187.061 20.4404H182.935ZM222.649 30.2935H213.193V25.1077H226.947V20.4404H208.035V46.0239H227.462V41.3566H213.193V34.9608H222.649V30.2935ZM233.652 20.4404H238.809V46.0239H233.652V20.4404ZM160.069 40.6652L162.304 46.0239H167.806L156.631 20.4404L156.459 20.2676H151.989L140.814 46.0239H146.144L148.379 41.0109L148.551 40.6652H160.069ZM154.224 26.8363L157.834 35.4794L158.006 35.9979H150.098L150.27 35.4794L154.224 26.8363Z" fill="#120D26"/>
<path d="M35.9424 43.4309C35.9424 43.4309 36.1143 43.2581 35.9424 43.2581C28.034 25.972 17.203 12.6616 17.203 12.6616C17.203 12.6616 11.3577 18.1932 11.7015 23.8976C11.8735 28.2192 15.14 30.6392 15.14 30.6392C20.2976 35.6522 32.6759 42.048 35.5986 43.4309H35.9424ZM33.8794 47.7525C33.8794 47.5796 33.5355 47.5796 33.5355 47.5796L12.905 48.271C15.14 52.2469 18.9222 55.3584 22.8764 54.4941C25.6271 53.8026 31.8163 49.4811 33.7074 48.0982C34.0513 47.7525 33.8794 47.7525 33.8794 47.7525ZM34.2232 45.851C34.3951 45.6781 34.2232 45.5053 34.2232 45.5053C25.1114 39.2823 7.57544 29.9478 7.57544 29.9478C6.02815 34.9607 8.0912 38.9365 8.0912 38.9365C10.3262 43.7767 14.6242 45.1595 14.6242 45.1595C16.5153 46.0239 18.5784 46.0239 18.5784 46.0239H34.0513C34.2232 46.0239 34.2232 45.851 34.2232 45.851ZM35.5986 3.67286C34.739 3.67286 32.3321 4.36431 32.3321 4.36431C26.8306 5.7472 25.6271 10.7602 25.6271 10.7602C24.5956 13.8717 25.6271 17.3289 25.6271 17.3289C27.5183 25.4534 36.4582 38.9365 38.3493 41.7023L38.5212 41.8752C38.6932 41.8752 38.6932 41.7023 38.6932 41.7023C41.7877 11.4516 35.5986 3.67286 35.5986 3.67286ZM42.4754 41.7023C42.6473 41.7023 42.8193 41.5295 42.8193 41.5295C44.8823 38.5908 53.6503 25.2805 55.5414 17.156C55.5414 17.156 56.5729 13.1802 55.5414 10.5873C55.5414 10.5873 54.166 5.57433 48.6646 4.19144C48.6646 4.19144 47.1173 3.84572 45.3981 3.5C45.3981 3.5 39.2089 11.4516 42.3035 41.3566C42.3035 41.7023 42.4754 41.7023 42.4754 41.7023ZM47.2892 47.5796C47.2892 47.5796 47.1173 47.5796 47.1173 47.7525V48.0982C49.1803 49.4811 55.0257 53.8026 57.9483 54.4941C57.9483 54.4941 63.2779 56.3955 67.9197 48.271L47.2892 47.5796ZM73.5931 29.7749C73.5931 29.7749 56.0572 39.2823 46.9454 45.5053C46.9454 45.5053 46.7734 45.6781 46.7734 45.851C46.7734 45.851 46.7734 46.0239 46.9454 46.0239H62.7621C62.7621 46.0239 64.3094 46.0239 66.3724 45.1595C66.3724 45.1595 70.6705 43.7767 73.0774 38.7637C73.0774 38.5908 75.1404 34.615 73.5931 29.7749ZM45.2262 43.4309C45.2262 43.4309 45.3981 43.6038 45.57 43.4309C48.4927 41.8752 60.871 35.6522 66.0286 30.6392C66.0286 30.6392 69.2951 28.0463 69.467 23.8976C69.8109 18.0203 63.9655 12.6616 63.9655 12.6616C63.9655 12.6616 53.1345 25.6262 45.2262 43.0852C45.2262 43.0852 45.0542 43.2581 45.2262 43.4309Z" fill="#120D26"/>
</svg>
