<svg width="258" height="56" viewBox="0 0 258 56" fill="none" xmlns="http://www.w3.org/2000/svg">
<g clip-path="url(#clip0_2_265)">
<path d="M257.106 25.3821V20.8538H251.502V13.8139L251.313 13.8722L246.05 15.4882L245.946 15.5199V20.854H237.638V17.8824C237.638 16.4988 237.947 15.4399 238.554 14.7337C239.158 14.0361 240.021 13.6814 241.122 13.6814C241.913 13.6814 242.732 13.8684 243.557 14.2373L243.764 14.33V9.561L243.666 9.52513C242.897 9.24765 241.851 9.10791 240.554 9.10791C238.919 9.10791 237.434 9.46485 236.139 10.1723C234.843 10.8806 233.824 11.8919 233.11 13.1777C232.398 14.462 232.037 15.9453 232.037 17.5868V20.8538H228.135V25.3821H232.037V44.4593H237.638V25.3821H245.946V37.5053C245.946 42.4983 248.293 45.0285 252.922 45.0285C253.682 45.0285 254.483 44.939 255.3 44.7639C256.132 44.5841 256.699 44.4045 257.032 44.2127L257.106 44.1689V39.5987L256.878 39.7499C256.574 39.9531 256.196 40.1192 255.752 40.2428C255.306 40.3686 254.934 40.4316 254.645 40.4316C253.561 40.4316 252.759 40.1384 252.261 39.5598C251.758 38.9759 251.502 37.9549 251.502 36.5267V25.3821H257.106ZM215.625 40.4323C213.592 40.4323 211.989 39.7558 210.86 38.4232C209.723 37.0839 209.147 35.1744 209.147 32.7483C209.147 30.2453 209.723 28.2862 210.86 26.9232C211.991 25.5692 213.578 24.882 215.58 24.882C217.522 24.882 219.068 25.5383 220.176 26.8338C221.289 28.136 221.854 30.0794 221.854 32.6116C221.854 35.1749 221.323 37.1439 220.275 38.4611C219.235 39.7683 217.671 40.4323 215.625 40.4323ZM215.874 20.2851C211.995 20.2851 208.915 21.4257 206.718 23.6751C204.523 25.9249 203.41 29.0382 203.41 32.9294C203.41 36.6253 204.496 39.5982 206.639 41.764C208.782 43.9305 211.699 45.028 215.307 45.028C219.067 45.028 222.087 43.8715 224.283 41.5908C226.478 39.3127 227.59 36.2288 227.59 32.4285C227.59 28.6748 226.547 25.6798 224.487 23.5284C222.427 21.3761 219.528 20.2851 215.874 20.2851ZM194.378 20.2851C191.739 20.2851 189.557 20.9624 187.89 22.2977C186.212 23.641 185.361 25.4028 185.361 27.5347C185.361 28.6429 185.545 29.6273 185.906 30.4622C186.27 31.2999 186.833 32.0374 187.58 32.6564C188.322 33.2704 189.468 33.9135 190.985 34.5679C192.261 35.0947 193.212 35.5403 193.817 35.8915C194.408 36.2358 194.827 36.5817 195.064 36.9188C195.294 37.2485 195.41 37.6999 195.41 38.2568C195.41 39.8428 194.227 40.6144 191.792 40.6144C190.888 40.6144 189.858 40.4251 188.729 40.052C187.609 39.6845 186.551 39.1463 185.593 38.4564L185.361 38.289V43.7008L185.446 43.7407C186.239 44.1078 187.238 44.4175 188.416 44.6611C189.591 44.9049 190.659 45.029 191.587 45.029C194.451 45.029 196.756 44.3485 198.439 43.0051C200.132 41.6526 200.99 39.8492 200.99 37.6436C200.99 36.0524 200.528 34.6879 199.617 33.5875C198.713 32.496 197.144 31.4939 194.955 30.6082C193.211 29.9058 192.093 29.3227 191.632 28.875C191.188 28.4426 190.963 27.8311 190.963 27.0567C190.963 26.3702 191.241 25.8203 191.813 25.3749C192.389 24.9273 193.191 24.6996 194.197 24.6996C195.13 24.6996 196.085 24.8476 197.035 25.1375C197.983 25.4275 198.817 25.8158 199.513 26.2908L199.742 26.4477V21.3141L199.654 21.2762C199.012 21 198.165 20.7636 197.137 20.5718C196.114 20.3812 195.186 20.2851 194.378 20.2851ZM170.758 40.4323C168.725 40.4323 167.122 39.7558 165.993 38.4232C164.856 37.0839 164.281 35.1749 164.281 32.7483C164.281 30.2453 164.856 28.2862 165.994 26.9232C167.123 25.5692 168.711 24.882 170.713 24.882C172.655 24.882 174.201 25.5383 175.309 26.8338C176.422 28.136 176.987 30.0794 176.987 32.6116C176.987 35.1749 176.455 37.1439 175.408 38.4611C174.368 39.7683 172.804 40.4323 170.758 40.4323ZM171.008 20.2851C167.128 20.2851 164.047 21.4257 161.851 23.6751C159.656 25.9249 158.542 29.0382 158.542 32.9294C158.542 36.6268 159.629 39.5982 161.773 41.764C163.916 43.9305 166.832 45.028 170.44 45.028C174.2 45.028 177.22 43.8715 179.416 41.5908C181.611 39.3127 182.724 36.2288 182.724 32.4285C182.724 28.6748 181.68 25.6798 179.62 23.5284C177.559 21.3761 174.661 20.2851 171.008 20.2851ZM150.039 24.9417V20.8538H144.506V44.4588H150.039V32.3839C150.039 30.3307 150.503 28.6439 151.419 27.3698C152.322 26.111 153.527 25.473 154.997 25.473C155.496 25.473 156.055 25.5555 156.661 25.7186C157.261 25.8808 157.695 26.0569 157.951 26.2422L158.184 26.4113V20.8134L158.094 20.7748C157.579 20.5551 156.85 20.4443 155.927 20.4443C154.537 20.4443 153.293 20.8926 152.227 21.7754C151.291 22.5513 150.615 23.6151 150.098 24.9417H150.039ZM134.597 20.2851C132.058 20.2851 129.794 20.8313 127.868 21.9081C125.938 22.9874 124.445 24.5283 123.43 26.4876C122.419 28.4421 121.906 30.7253 121.906 33.2714C121.906 35.5017 122.403 37.5484 123.387 39.3523C124.371 41.1592 125.764 42.5727 127.528 43.5531C129.289 44.5323 131.324 45.0287 133.577 45.0287C136.207 45.0287 138.452 44.5011 140.252 43.4607L140.325 43.4189V38.3318L140.092 38.5022C139.277 39.0982 138.365 39.574 137.385 39.9167C136.407 40.2592 135.515 40.4323 134.733 40.4323C132.562 40.4323 130.819 39.7506 129.554 38.4065C128.286 37.0607 127.643 35.1709 127.643 32.7929C127.643 30.3999 128.314 28.4616 129.635 27.0313C130.952 25.6053 132.699 24.882 134.825 24.882C136.644 24.882 138.416 25.4999 140.093 26.7205L140.325 26.8896V21.5295L140.25 21.4872C139.619 21.1327 138.758 20.8401 137.69 20.6181C136.626 20.3967 135.585 20.2851 134.597 20.2851ZM118.095 20.854H112.561V44.4588H118.095V20.854ZM115.385 10.7982C114.474 10.7982 113.68 11.1093 113.027 11.7258C112.372 12.344 112.039 13.1224 112.039 14.041C112.039 14.9452 112.368 15.7094 113.017 16.3112C113.662 16.9112 114.459 17.2154 115.385 17.2154C116.311 17.2154 117.111 16.9112 117.763 16.3122C118.42 15.7094 118.753 14.9455 118.753 14.041C118.753 13.1545 118.429 12.3841 117.79 11.7507C117.152 11.1185 116.343 10.7982 115.385 10.7982ZM101.579 19.1124V44.4588H107.226V11.5208H99.41L89.4757 35.9862L79.8351 11.5208H71.7012V44.4586H77.0079V19.1099H77.1901L87.3703 44.4588H91.3751L101.396 19.1124H101.579Z" fill="#120D26"/>
<path d="M26.5396 26.6352H0.509277V0.51416H26.5396V26.6352Z" fill="#120D26"/>
<path d="M55.2799 26.6352H29.25V0.51416H55.2799V26.6352Z" fill="#120D26"/>
<path d="M26.5389 55.4858H0.509277V29.365H26.5389V55.4858Z" fill="#120D26"/>
<path d="M55.2799 55.4858H29.25V29.365H55.2799V55.4858Z" fill="#120D26"/>
</g>
<defs>
<clipPath id="clip0_2_265">
<rect width="256.597" height="55" fill="white" transform="translate(0.509277 0.5)"/>
</clipPath>
</defs>
</svg>
