<svg width="184" height="52" viewBox="0 0 184 52" fill="none" xmlns="http://www.w3.org/2000/svg">
<g clip-path="url(#clip0_2_256)">
<path d="M0.510254 12.9153H11.3975L17.737 29.2142L24.1588 12.9153H34.7593L18.7973 51.5H8.1296L12.4989 41.2757L0.510254 12.9153Z" fill="#120D26"/>
<path d="M45.8025 12.2664C37.6224 12.2664 32.4512 19.6388 32.4512 26.9805C32.4512 35.2421 38.1208 41.7921 45.6473 41.7921C51.2618 41.7921 53.3788 38.3545 53.3788 38.3545V41.0323H62.8746V12.9154H53.3788V15.4715C53.3788 15.4715 51.017 12.2664 45.8025 12.2664ZM47.8223 21.302C51.5967 21.302 53.5444 24.3033 53.5444 27.0114C53.5444 29.9275 51.4577 32.7892 47.8223 32.7892C44.8093 32.7892 42.0865 30.3148 42.0865 27.1355C42.0865 23.9112 44.2766 21.302 47.8223 21.302Z" fill="#120D26"/>
<path d="M66.1445 41.0322V0.5H76.0765V15.5689C76.0765 15.5689 78.4356 12.2699 83.3764 12.2699C89.42 12.2699 92.961 16.7951 92.961 23.2613V41.0322H83.1016V25.6957C83.1016 23.5074 82.0644 21.3934 79.7148 21.3934C77.323 21.3934 76.0765 23.5394 76.0765 25.6957V41.0322H66.1445Z" fill="#120D26"/>
<path d="M109.895 12.2698C100.527 12.2698 94.9487 19.4281 94.9487 27.0976C94.9487 35.8255 101.702 41.7922 109.93 41.7922C117.904 41.7922 124.882 36.0963 124.882 27.244C124.882 17.5579 117.576 12.2698 109.895 12.2698ZM109.984 21.3849C113.293 21.3849 115.583 24.1545 115.583 27.108C115.583 29.6271 113.449 32.7342 109.984 32.7342C106.809 32.7342 104.426 30.1747 104.426 27.0804C104.426 24.0997 106.407 21.3849 109.984 21.3849Z" fill="#120D26"/>
<path d="M141.429 12.2698C132.061 12.2698 126.483 19.4281 126.483 27.0976C126.483 35.8255 133.237 41.7922 141.464 41.7922C149.439 41.7922 156.417 36.0963 156.417 27.244C156.417 17.5579 149.11 12.2698 141.429 12.2698ZM141.518 21.3849C144.827 21.3849 147.117 24.1545 147.117 27.108C147.117 29.6271 144.983 32.7342 141.518 32.7342C138.343 32.7342 135.96 30.1747 135.96 27.0804C135.96 24.0997 137.941 21.3849 141.518 21.3849Z" fill="#120D26"/>
<path d="M164.254 41.6292C167.896 41.6292 170.849 38.6618 170.849 35.0015C170.849 31.3411 167.896 28.3738 164.254 28.3738C160.611 28.3738 157.659 31.3411 157.659 35.0015C157.659 38.6618 160.611 41.6292 164.254 41.6292Z" fill="#120D26"/>
<path d="M173.016 25.9391H161.143L171.681 0.5H183.509L173.016 25.9391Z" fill="#120D26"/>
</g>
<defs>
<clipPath id="clip0_2_256">
<rect width="182.999" height="51" fill="white" transform="translate(0.510254 0.5)"/>
</clipPath>
</defs>
</svg>
